<svg xmlns="http://www.w3.org/2000/svg" xmlns:xlink="http://www.w3.org/1999/xlink" width="376" zoomAndPan="magnify" viewBox="0 0 282 281.999989" height="376" preserveAspectRatio="xMidYMid meet" version="1.0"><defs><clipPath id="e205d637ab"><path d="M 38.945312 70.292969 L 47.605469 70.292969 L 47.605469 79.292969 L 38.945312 79.292969 Z M 38.945312 70.292969 " clip-rule="nonzero"/></clipPath><clipPath id="75bf24a86f"><path d="M 47.585938 73.386719 C 46.460938 78.1875 45.789062 78.5625 45.1875 78.863281 C 44.511719 79.085938 43.835938 79.386719 43.085938 79.238281 C 41.960938 79.011719 40.085938 78.113281 39.488281 77.0625 C 38.8125 76.011719 38.886719 73.914062 39.1875 72.863281 C 39.488281 72.113281 40.011719 71.585938 40.539062 71.210938 C 41.0625 70.761719 41.738281 70.3125 42.488281 70.3125 C 43.613281 70.238281 46.539062 71.511719 46.539062 71.511719 " clip-rule="nonzero"/></clipPath></defs><path fill="#a4c639" d="M 42.300781 0 L 239.699219 0 C 241.085938 0 242.46875 0.0664062 243.847656 0.203125 C 245.226562 0.339844 246.59375 0.542969 247.953125 0.8125 C 249.3125 1.082031 250.652344 1.417969 251.980469 1.820312 C 253.304688 2.222656 254.609375 2.691406 255.886719 3.21875 C 257.167969 3.75 258.417969 4.339844 259.640625 4.996094 C 260.863281 5.648438 262.046875 6.359375 263.199219 7.128906 C 264.351562 7.898438 265.464844 8.722656 266.535156 9.601562 C 267.605469 10.480469 268.632812 11.410156 269.609375 12.390625 C 270.589844 13.367188 271.519531 14.394531 272.398438 15.464844 C 273.277344 16.535156 274.101562 17.648438 274.871094 18.800781 C 275.640625 19.953125 276.351562 21.136719 277.003906 22.359375 C 277.660156 23.582031 278.25 24.832031 278.78125 26.113281 C 279.308594 27.390625 279.777344 28.695312 280.179688 30.019531 C 280.582031 31.347656 280.917969 32.6875 281.1875 34.046875 C 281.457031 35.40625 281.660156 36.773438 281.796875 38.152344 C 281.933594 39.53125 282 40.914062 282 42.300781 L 282 239.699219 C 282 241.085938 281.933594 242.46875 281.796875 243.847656 C 281.660156 245.226562 281.457031 246.59375 281.1875 247.953125 C 280.917969 249.3125 280.582031 250.652344 280.179688 251.980469 C 279.777344 253.304688 279.308594 254.609375 278.78125 255.886719 C 278.25 257.167969 277.660156 258.417969 277.003906 259.640625 C 276.351562 260.863281 275.640625 262.046875 274.871094 263.199219 C 274.101562 264.351562 273.277344 265.464844 272.398438 266.535156 C 271.519531 267.605469 270.589844 268.632812 269.609375 269.609375 C 268.632812 270.589844 267.605469 271.519531 266.535156 272.398438 C 265.464844 273.277344 264.351562 274.101562 263.199219 274.871094 C 262.046875 275.640625 260.863281 276.351562 259.640625 277.003906 C 258.417969 277.660156 257.167969 278.25 255.886719 278.78125 C 254.609375 279.308594 253.304688 279.777344 251.980469 280.179688 C 250.652344 280.582031 249.3125 280.917969 247.953125 281.1875 C 246.59375 281.457031 245.226562 281.660156 243.847656 281.796875 C 242.46875 281.933594 241.085938 282 239.699219 282 L 42.300781 282 C 40.914062 282 39.53125 281.933594 38.152344 281.796875 C 36.773438 281.660156 35.40625 281.457031 34.046875 281.1875 C 32.6875 280.917969 31.347656 280.582031 30.019531 280.179688 C 28.695312 279.777344 27.390625 279.308594 26.113281 278.78125 C 24.832031 278.25 23.582031 277.660156 22.359375 277.003906 C 21.136719 276.351562 19.953125 275.640625 18.800781 274.871094 C 17.648438 274.101562 16.535156 273.277344 15.464844 272.398438 C 14.394531 271.519531 13.367188 270.589844 12.390625 269.609375 C 11.410156 268.632812 10.480469 267.605469 9.601562 266.535156 C 8.722656 265.464844 7.898438 264.351562 7.128906 263.199219 C 6.359375 262.046875 5.648438 260.863281 4.996094 259.640625 C 4.339844 258.417969 3.75 257.167969 3.21875 255.886719 C 2.691406 254.609375 2.222656 253.304688 1.820312 251.980469 C 1.417969 250.652344 1.082031 249.3125 0.8125 247.953125 C 0.542969 246.59375 0.339844 245.226562 0.203125 243.847656 C 0.0664062 242.46875 0 241.085938 0 239.699219 L 0 42.300781 C 0 40.914062 0.0664062 39.53125 0.203125 38.152344 C 0.339844 36.773438 0.542969 35.40625 0.8125 34.046875 C 1.082031 32.6875 1.417969 31.347656 1.820312 30.019531 C 2.222656 28.695312 2.691406 27.390625 3.21875 26.113281 C 3.75 24.832031 4.339844 23.582031 4.996094 22.359375 C 5.648438 21.136719 6.359375 19.953125 7.128906 18.800781 C 7.898438 17.648438 8.722656 16.535156 9.601562 15.464844 C 10.480469 14.394531 11.410156 13.367188 12.390625 12.390625 C 13.367188 11.410156 14.394531 10.480469 15.464844 9.601562 C 16.535156 8.722656 17.648438 7.898438 18.800781 7.128906 C 19.953125 6.359375 21.136719 5.648438 22.359375 4.996094 C 23.582031 4.339844 24.832031 3.75 26.113281 3.21875 C 27.390625 2.691406 28.695312 2.222656 30.019531 1.820312 C 31.347656 1.417969 32.6875 1.082031 34.046875 0.8125 C 35.40625 0.542969 36.773438 0.339844 38.152344 0.203125 C 39.53125 0.0664062 40.914062 0 42.300781 0 Z M 42.300781 0 " fill-opacity="1" fill-rule="nonzero"/><path stroke-linecap="round" transform="matrix(0.550781, 0, 0, 0.550781, 0.00000575, 0.000000000000042633)" fill-opacity="1" fill="#000000" fill-rule="nonzero" stroke-linejoin="miter" d="M 106.999997 212.000015 L 106.999997 318.000023 M 406.000019 212.000015 L 406.000019 318.000023 M 299.000011 384.000027 L 299.000011 440.000031 M 214.000005 384.000027 L 214.000005 440.000031 " stroke="#ffffff" stroke-width="58" stroke-opacity="1" stroke-miterlimit="4"/><path stroke-linecap="round" transform="matrix(0.550781, 0, 0, 0.550781, 0.00000575, 0.000000000000042633)" fill-opacity="1" fill="#000000" fill-rule="nonzero" stroke-linejoin="miter" d="M 203.000004 88.000006 L 186.000003 56.000004 M 309.000012 88.000006 L 327.000013 56.000004 " stroke="#ffffff" stroke-width="8" stroke-opacity="1" stroke-miterlimit="4"/><path fill="#ffffff" d="M 141.550781 41.859375 C 99.691406 41.859375 78.210938 74.90625 78.210938 99.691406 L 204.339844 99.691406 C 204.339844 73.804688 181.207031 42.410156 141.550781 41.859375 Z M 78.210938 105.199219 L 78.210938 195.527344 C 78.210938 204.339844 85.371094 211.5 93.632812 211.5 L 188.367188 211.5 C 197.179688 211.5 204.339844 204.339844 204.339844 195.527344 L 204.339844 105.199219 Z M 78.210938 105.199219 " fill-opacity="1" fill-rule="nonzero"/><path fill="#a4c639" d="M 117.316406 71.601562 C 117.316406 71.925781 117.285156 72.25 117.222656 72.570312 C 117.15625 72.886719 117.0625 73.199219 116.9375 73.5 C 116.816406 73.800781 116.660156 74.085938 116.480469 74.355469 C 116.300781 74.625 116.09375 74.875 115.863281 75.105469 C 115.632812 75.335938 115.382812 75.542969 115.113281 75.722656 C 114.84375 75.902344 114.558594 76.058594 114.257812 76.179688 C 113.957031 76.304688 113.644531 76.398438 113.328125 76.464844 C 113.007812 76.527344 112.683594 76.558594 112.359375 76.558594 C 112.035156 76.558594 111.710938 76.527344 111.390625 76.464844 C 111.074219 76.398438 110.761719 76.304688 110.460938 76.179688 C 110.160156 76.058594 109.875 75.902344 109.605469 75.722656 C 109.335938 75.542969 109.085938 75.335938 108.855469 75.105469 C 108.625 74.875 108.417969 74.625 108.238281 74.355469 C 108.058594 74.085938 107.902344 73.800781 107.78125 73.5 C 107.65625 73.199219 107.5625 72.886719 107.496094 72.570312 C 107.433594 72.25 107.402344 71.925781 107.402344 71.601562 C 107.402344 71.277344 107.433594 70.953125 107.496094 70.632812 C 107.5625 70.316406 107.65625 70.003906 107.78125 69.703125 C 107.902344 69.402344 108.058594 69.117188 108.238281 68.847656 C 108.417969 68.578125 108.625 68.328125 108.855469 68.097656 C 109.085938 67.867188 109.335938 67.660156 109.605469 67.480469 C 109.875 67.300781 110.160156 67.144531 110.460938 67.023438 C 110.761719 66.898438 111.074219 66.804688 111.390625 66.738281 C 111.710938 66.675781 112.035156 66.644531 112.359375 66.644531 C 112.683594 66.644531 113.007812 66.675781 113.328125 66.738281 C 113.644531 66.804688 113.957031 66.898438 114.257812 67.023438 C 114.558594 67.144531 114.84375 67.300781 115.113281 67.480469 C 115.382812 67.660156 115.632812 67.867188 115.863281 68.097656 C 116.09375 68.328125 116.300781 68.578125 116.480469 68.847656 C 116.660156 69.117188 116.816406 69.402344 116.9375 69.703125 C 117.0625 70.003906 117.15625 70.316406 117.222656 70.632812 C 117.285156 70.953125 117.316406 71.277344 117.316406 71.601562 Z M 117.316406 71.601562 " fill-opacity="1" fill-rule="nonzero"/><path fill="#a4c639" d="M 175.148438 71.601562 C 175.148438 71.925781 175.117188 72.25 175.054688 72.570312 C 174.988281 72.886719 174.894531 73.199219 174.769531 73.5 C 174.648438 73.800781 174.492188 74.085938 174.3125 74.355469 C 174.132812 74.625 173.925781 74.875 173.695312 75.105469 C 173.464844 75.335938 173.214844 75.542969 172.945312 75.722656 C 172.675781 75.902344 172.390625 76.058594 172.089844 76.179688 C 171.789062 76.304688 171.476562 76.398438 171.160156 76.464844 C 170.839844 76.527344 170.515625 76.558594 170.191406 76.558594 C 169.867188 76.558594 169.542969 76.527344 169.222656 76.464844 C 168.90625 76.398438 168.59375 76.304688 168.292969 76.179688 C 167.992188 76.058594 167.707031 75.902344 167.4375 75.722656 C 167.167969 75.542969 166.917969 75.335938 166.6875 75.105469 C 166.457031 74.875 166.25 74.625 166.070312 74.355469 C 165.890625 74.085938 165.734375 73.800781 165.613281 73.5 C 165.488281 73.199219 165.394531 72.886719 165.328125 72.570312 C 165.265625 72.25 165.234375 71.925781 165.234375 71.601562 C 165.234375 71.277344 165.265625 70.953125 165.328125 70.632812 C 165.394531 70.316406 165.488281 70.003906 165.613281 69.703125 C 165.734375 69.402344 165.890625 69.117188 166.070312 68.847656 C 166.25 68.578125 166.457031 68.328125 166.6875 68.097656 C 166.917969 67.867188 167.167969 67.660156 167.4375 67.480469 C 167.707031 67.300781 167.992188 67.144531 168.292969 67.023438 C 168.59375 66.898438 168.90625 66.804688 169.222656 66.738281 C 169.542969 66.675781 169.867188 66.644531 170.191406 66.644531 C 170.515625 66.644531 170.839844 66.675781 171.160156 66.738281 C 171.476562 66.804688 171.789062 66.898438 172.089844 67.023438 C 172.390625 67.144531 172.675781 67.300781 172.945312 67.480469 C 173.214844 67.660156 173.464844 67.867188 173.695312 68.097656 C 173.925781 68.328125 174.132812 68.578125 174.3125 68.847656 C 174.492188 69.117188 174.648438 69.402344 174.769531 69.703125 C 174.894531 70.003906 174.988281 70.316406 175.054688 70.632812 C 175.117188 70.953125 175.148438 71.277344 175.148438 71.601562 Z M 175.148438 71.601562 " fill-opacity="1" fill-rule="nonzero"/><g clip-path="url(#e205d637ab)"><g clip-path="url(#75bf24a86f)"><path fill="#a5c738" d="M 36.1875 67.3125 L 50.585938 67.3125 L 50.585938 82.21875 L 36.1875 82.21875 Z M 36.1875 67.3125 " fill-opacity="1" fill-rule="nonzero"/></g></g></svg>