<svg xmlns="http://www.w3.org/2000/svg" xmlns:xlink="http://www.w3.org/1999/xlink" width="245" zoomAndPan="magnify" viewBox="0 0 183.75 225" height="300" preserveAspectRatio="xMidYMid meet" version="1.2"><defs><clipPath id="962f9fffae"><path d="M 0 0.152344 L 183.5 0.152344 L 183.5 224.847656 L 0 224.847656 Z M 0 0.152344 "/></clipPath><clipPath id="4f12140eff"><path d="M 43.273438 144.910156 L 45.328125 144.910156 L 45.328125 146.675781 L 43.273438 146.675781 Z M 43.273438 144.910156 "/></clipPath><clipPath id="757d07c4dd"><path d="M 45.289062 145.554688 C 44.421875 146.964844 43.554688 146.746094 43.339844 146.421875 C 43.230469 146.097656 43.339844 145.230469 43.664062 145.015625 C 43.882812 144.796875 45.074219 145.121094 45.074219 145.121094 "/></clipPath></defs><g id="b0edcb0541"><g clip-rule="nonzero" clip-path="url(#962f9fffae)"><path style=" stroke:none;fill-rule:nonzero;fill:#ffffff;fill-opacity:1;" d="M 0 0.152344 L 183.5 0.152344 L 183.5 224.847656 L 0 224.847656 Z M 0 0.152344 "/></g><path style=" stroke:none;fill-rule:nonzero;fill:#303c45;fill-opacity:1;" d="M 163.792969 179.097656 C 162.800781 180.417969 161.8125 181.628906 160.710938 182.953125 C 158.507812 185.59375 156.082031 188.128906 153.660156 190.441406 C 145.730469 198.042969 136.476562 204.210938 126.230469 208.507812 C 111.472656 214.785156 95.167969 216.988281 79.308594 214.894531 C 36.789062 209.609375 3.304688 174.800781 0 131.621094 L 15.089844 131.621094 C 18.835938 194.628906 102.550781 224.039062 145.066406 178.105469 C 138.898438 169.292969 119.953125 142.195312 114.226562 133.824219 L 114.226562 163.785156 L 99.574219 163.785156 L 99.574219 122.921875 L 114.117188 122.921875 C 123.589844 123.359375 137.6875 123.472656 137.355469 110.804688 C 137.578125 98.355469 123.367188 98.578125 114.117188 99.019531 C 114.117188 99.019531 99.574219 99.019531 99.574219 99.019531 L 99.574219 85.359375 C 112.574219 85.910156 138.238281 82.273438 146.167969 93.949219 C 158.175781 108.269531 150.796875 131.402344 131.519531 134.816406 C 139.007812 145.171875 156.523438 169.183594 163.792969 179.097656 Z M 163.792969 179.097656 "/><path style=" stroke:none;fill-rule:nonzero;fill:#0078d7;fill-opacity:1;" d="M 181.96875 124.574219 C 181.96875 131.730469 181.085938 138.671875 179.542969 145.390625 L 166.988281 127.105469 C 170.953125 49.671875 63.445312 19.160156 25.664062 85.359375 C 43.621094 85.691406 71.816406 82.714844 84.15625 94.5 C 104.644531 112.015625 100.125 152 73.46875 160.8125 C 64.328125 164.667969 45.273438 163.675781 34.257812 163.785156 L 34.257812 131.621094 L 48.796875 131.621094 L 48.796875 150.347656 C 92.636719 155.523438 94.617188 96.703125 51.550781 99.019531 C 37.011719 99.019531 18.175781 99.019531 3.636719 99.019531 C 30.84375 0.214844 183.070312 20.589844 181.96875 124.574219 Z M 181.96875 124.574219 "/><g clip-rule="nonzero" clip-path="url(#4f12140eff)"><g clip-rule="nonzero" clip-path="url(#757d07c4dd)"><path style=" stroke:none;fill-rule:nonzero;fill:#007acd;fill-opacity:1;" d="M 39.003906 140.679688 L 49.722656 140.679688 L 49.722656 151.191406 L 39.003906 151.191406 Z M 39.003906 140.679688 "/></g></g></g></svg>