<svg xmlns="http://www.w3.org/2000/svg" xmlns:xlink="http://www.w3.org/1999/xlink" width="156" zoomAndPan="magnify" viewBox="0 0 116.88 116.999995" height="156" preserveAspectRatio="xMidYMid meet" version="1.2"><defs><clipPath id="9419aaafcc"><path d="M 0 0.0585938 L 116.128906 0.0585938 L 116.128906 116.191406 L 0 116.191406 Z M 0 0.0585938 "/></clipPath><clipPath id="433c43f724"><path d="M 53.835938 20.492188 L 55.28125 20.492188 L 55.28125 21.714844 L 53.835938 21.714844 Z M 53.835938 20.492188 "/></clipPath><clipPath id="8396e51030"><path d="M 55.253906 20.941406 C 54.65625 21.914062 54.058594 21.765625 53.90625 21.539062 C 53.757812 21.316406 53.90625 20.714844 54.058594 20.566406 C 54.28125 20.414062 55.105469 20.640625 55.105469 20.640625 "/></clipPath></defs><g id="ec331209bf"><g clip-rule="nonzero" clip-path="url(#9419aaafcc)"><path style=" stroke:none;fill-rule:evenodd;fill:#0078d7;fill-opacity:1;" d="M 58.066406 116.195312 C 90.050781 116.195312 116.132812 90.109375 116.132812 58.125 C 116.132812 26.144531 90.050781 0.0585938 58.066406 0.0585938 C 26.085938 0.0585938 0 26.144531 0 58.125 C 0 90.109375 26.085938 116.195312 58.066406 116.195312 "/></g><path style=" stroke:none;fill-rule:evenodd;fill:#0078d7;fill-opacity:1;" d="M 22.804688 80.332031 L 93.328125 80.332031 L 93.328125 35.917969 L 22.804688 35.917969 L 22.804688 80.332031 "/><path style=" stroke:none;fill-rule:nonzero;fill:#ffffff;fill-opacity:1;" d="M 22.804688 33.519531 L 58.066406 33.519531 L 58.066406 38.320312 L 25.207031 38.320312 L 25.207031 77.933594 L 58.066406 77.933594 L 58.066406 82.734375 L 20.40625 82.734375 L 20.40625 33.519531 Z M 58.066406 33.519531 L 95.730469 33.519531 L 95.730469 82.734375 L 58.066406 82.734375 L 58.066406 77.933594 L 90.925781 77.933594 L 90.925781 38.320312 L 58.066406 38.320312 L 58.066406 33.519531 "/><path style=" stroke:none;fill-rule:evenodd;fill:#0078d7;fill-opacity:1;" d="M 58.066406 47.921875 L 93.332031 80.335938 L 22.800781 80.335938 L 58.066406 47.921875 "/><path style=" stroke:none;fill-rule:nonzero;fill:#ffffff;fill-opacity:1;" d="M 58.066406 82.734375 L 22.800781 82.734375 L 21.179688 78.570312 L 38.8125 62.367188 L 56.445312 46.160156 L 58.066406 44.667969 L 58.066406 51.179688 L 42.058594 65.890625 L 28.953125 77.933594 L 58.066406 77.933594 Z M 59.6875 46.160156 L 77.320312 62.367188 L 94.953125 78.570312 L 93.332031 82.734375 L 58.066406 82.734375 L 58.066406 77.933594 L 87.179688 77.933594 L 74.078125 65.890625 L 58.066406 51.179688 L 58.066406 44.667969 L 59.6875 46.160156 "/><path style=" stroke:none;fill-rule:evenodd;fill:#0078d7;fill-opacity:1;" d="M 58.066406 68.328125 L 75.699219 52.125 L 93.332031 35.917969 L 22.800781 35.917969 L 40.433594 52.125 L 58.066406 68.328125 "/><path style=" stroke:none;fill-rule:nonzero;fill:#ffffff;fill-opacity:1;" d="M 58.066406 38.320312 L 28.953125 38.320312 L 42.058594 50.363281 L 58.066406 65.074219 L 58.066406 71.585938 L 56.445312 70.09375 L 38.8125 53.886719 L 21.179688 37.683594 L 22.800781 33.519531 L 58.066406 33.519531 Z M 58.066406 65.074219 L 74.078125 50.363281 L 87.179688 38.320312 L 58.066406 38.320312 L 58.066406 33.519531 L 93.332031 33.519531 L 94.953125 37.683594 L 77.320312 53.886719 L 59.6875 70.09375 L 58.066406 71.585938 L 58.066406 65.074219 "/><g clip-rule="nonzero" clip-path="url(#433c43f724)"><g clip-rule="nonzero" clip-path="url(#8396e51030)"><path style=" stroke:none;fill-rule:nonzero;fill:#007acd;fill-opacity:1;" d="M 50.910156 17.570312 L 58.320312 17.570312 L 58.320312 24.835938 L 50.910156 24.835938 Z M 50.910156 17.570312 "/></g></g></g></svg>