<svg xmlns="http://www.w3.org/2000/svg" xmlns:xlink="http://www.w3.org/1999/xlink" width="311" zoomAndPan="magnify" viewBox="0 0 233.25 323.999995" height="432" preserveAspectRatio="xMidYMid meet" version="1.0"><defs><clipPath id="5d13b5003d"><path d="M 195.808594 150.085938 L 204.585938 150.085938 L 204.585938 159.09375 L 195.808594 159.09375 Z M 195.808594 150.085938 " clip-rule="nonzero"/></clipPath><clipPath id="f810c6bdbe"><path d="M 204.582031 153.253906 C 204.359375 156.394531 203.085938 158.113281 202.117188 158.636719 C 201.441406 159.007812 200.769531 159.160156 200.023438 159.007812 C 198.976562 158.859375 197.105469 157.738281 196.433594 156.839844 C 195.984375 156.242188 195.761719 155.570312 195.835938 154.824219 C 195.910156 153.777344 196.734375 151.757812 197.554688 151.011719 C 198.078125 150.488281 198.75 150.1875 199.5 150.113281 C 200.546875 150.039062 203.460938 151.382812 203.460938 151.382812 " clip-rule="nonzero"/></clipPath><clipPath id="eb895a2303"><path d="M 0 69 L 231.753906 69 L 231.753906 323.480469 L 0 323.480469 Z M 0 69 " clip-rule="nonzero"/></clipPath></defs><g clip-path="url(#5d13b5003d)"><g clip-path="url(#f810c6bdbe)"><path fill="#fdcf60" d="M 192.847656 147.121094 L 207.722656 147.121094 L 207.722656 162 L 192.847656 162 Z M 192.847656 147.121094 " fill-opacity="1" fill-rule="nonzero"/></g></g><path fill="#ffa000" d="M 152.65625 118.449219 L 120.558594 148.339844 L 90.773438 88.210938 L 106.1875 53.628906 C 110.195312 46.605469 116.449219 46.6875 120.355469 53.628906 Z M 152.65625 118.449219 " fill-opacity="1" fill-rule="nonzero"/><path fill="#f57f17" d="M 90.773438 88.210938 L 120.558594 148.339844 L 0.597656 260.023438 Z M 90.773438 88.210938 " fill-opacity="1" fill-rule="nonzero"/><g clip-path="url(#eb895a2303)"><path fill="#ffca28" d="M 187.761719 72.765625 C 193.496094 67.246094 199.429688 69.132812 200.941406 76.945312 L 232.171875 258.539062 L 128.664062 320.722656 C 125.058594 322.726562 115.4375 323.589844 115.4375 323.589844 C 115.4375 323.589844 106.675781 322.546875 103.339844 320.582031 L 0.597656 260.023438 Z M 187.761719 72.765625 " fill-opacity="1" fill-rule="nonzero"/></g><path fill="#ffa000" d="M 90.773438 88.210938 L 0.605469 260.023438 L 40.765625 8.925781 C 42.246094 1.101562 46.695312 0.347656 50.664062 7.25 Z M 90.773438 88.210938 " fill-opacity="1" fill-rule="nonzero"/></svg>