<svg xmlns="http://www.w3.org/2000/svg" xmlns:xlink="http://www.w3.org/1999/xlink" width="432" zoomAndPan="magnify" viewBox="0 0 324 148.499996" height="198" preserveAspectRatio="xMidYMid meet" version="1.0"><defs><clipPath id="5411407c18"><path d="M 44.417969 76.628906 L 52.96875 76.628906 L 52.96875 85.464844 L 44.417969 85.464844 Z M 44.417969 76.628906 " clip-rule="nonzero"/></clipPath><clipPath id="02bba21804"><path d="M 52.945312 79.738281 C 52.796875 82.953125 51.675781 84.671875 50.554688 85.195312 C 49.433594 85.640625 47.339844 85.34375 46.367188 84.894531 C 45.695312 84.597656 45.171875 84.074219 44.875 83.398438 C 44.425781 82.429688 44.277344 80.261719 44.574219 79.214844 C 44.875 78.464844 45.398438 77.945312 45.921875 77.570312 C 46.441406 77.121094 47.117188 76.671875 47.863281 76.671875 C 48.984375 76.597656 51.898438 77.867188 51.898438 77.867188 " clip-rule="nonzero"/></clipPath><clipPath id="3b824bb61f"><path d="M 190 19 L 323.457031 19 L 323.457031 127 L 190 127 Z M 190 19 " clip-rule="nonzero"/></clipPath></defs><g clip-path="url(#5411407c18)"><g clip-path="url(#02bba21804)"><path fill="#ff7262" d="M 41.585938 73.683594 L 56.085938 73.683594 L 56.085938 88.183594 L 41.585938 88.183594 Z M 41.585938 73.683594 " fill-opacity="1" fill-rule="nonzero"/></g></g><g clip-path="url(#3b824bb61f)"><path fill="#362701" d="M 217.0625 56.757812 C 211.242188 56.757812 206.898438 59.613281 206.898438 66.492188 C 206.898438 71.625 209.757812 75.269531 216.746094 75.269531 C 222.667969 75.269531 226.691406 71.777344 226.691406 66.277344 C 226.691406 60.03125 223.097656 56.757812 217.0625 56.757812 Z M 205.421875 105.3125 C 204.039062 107.003906 202.667969 108.804688 202.667969 110.875 C 202.667969 115.101562 208.058594 116.375 215.472656 116.375 C 221.613281 116.375 229.976562 115.949219 229.976562 110.242188 C 229.976562 106.851562 225.953125 106.640625 220.867188 106.324219 L 205.457031 105.269531 Z M 236.753906 57.070312 C 238.652344 59.511719 240.671875 62.890625 240.671875 67.757812 C 240.671875 79.496094 231.425781 86.375 218.125 86.375 C 214.699219 86.375 211.703125 85.945312 209.757812 85.421875 L 206.265625 90.984375 L 216.640625 91.617188 C 234.960938 92.78125 245.75 93.3125 245.75 107.375 C 245.75 119.542969 235.066406 126.40625 216.640625 126.40625 C 197.484375 126.40625 190.183594 121.539062 190.183594 113.144531 C 190.183594 108.390625 192.304688 105.847656 196.003906 102.355469 C 192.511719 100.882812 191.347656 98.234375 191.347656 95.378906 C 191.347656 93.054688 192.511719 90.929688 194.417969 88.964844 L 200.980469 82.617188 C 195.792969 80.085938 191.871094 74.574219 191.871094 66.789062 C 191.871094 54.625 199.917969 46.273438 216.113281 46.273438 C 220.667969 46.273438 223.421875 46.695312 225.855469 47.332031 L 246.5 47.332031 L 246.5 56.324219 L 236.757812 57.0625 M 265.117188 37.847656 C 259.125 37.847656 255.589844 34.359375 255.589844 28.320312 C 255.589844 22.285156 259.082031 19.015625 265.117188 19.015625 C 271.257812 19.015625 274.75 22.300781 274.75 28.320312 C 274.75 34.34375 271.257812 37.847656 265.121094 37.847656 Z M 251.417969 101.417969 L 251.417969 93.070312 L 256.824219 92.332031 C 258.300781 92.117188 258.519531 91.800781 258.519531 90.210938 L 258.519531 59.117188 C 258.519531 57.953125 258.199219 57.214844 257.136719 56.894531 L 251.417969 54.886719 L 252.582031 46.324219 L 274.5 46.324219 L 274.5 90.226562 C 274.5 91.921875 274.601562 92.128906 276.195312 92.347656 L 281.585938 93.085938 L 281.585938 101.429688 L 251.410156 101.429688 M 323.492188 97.324219 C 318.9375 99.546875 312.265625 101.601562 306.230469 101.601562 C 293.628906 101.601562 288.871094 96.53125 288.871094 84.570312 L 288.871094 56.851562 C 288.871094 56.21875 288.871094 55.792969 288.015625 55.792969 L 280.652344 55.792969 L 280.652344 46.382812 C 289.964844 45.355469 293.675781 40.667969 294.839844 29.136719 L 304.898438 29.136719 L 304.898438 44.15625 C 304.898438 44.894531 304.898438 45.21875 305.746094 45.21875 L 320.675781 45.21875 L 320.675781 55.792969 L 304.855469 55.792969 L 304.855469 81.027344 C 304.855469 87.273438 306.339844 89.703125 312.046875 89.703125 C 315.011719 89.703125 318.039062 88.964844 320.621094 88.011719 L 323.480469 97.320312 " fill-opacity="1" fill-rule="nonzero"/></g><path fill="#f03c2e" d="M 143.917969 66.953125 L 80.460938 3.546875 C 76.808594 -0.105469 70.882812 -0.105469 67.226562 3.546875 L 54.050781 16.714844 L 70.761719 33.414062 C 74.648438 32.101562 79.101562 32.984375 82.191406 36.070312 C 82.925781 36.808594 83.546875 37.636719 84.054688 38.546875 C 84.558594 39.460938 84.925781 40.425781 85.160156 41.441406 C 85.394531 42.457031 85.484375 43.488281 85.425781 44.527344 C 85.371094 45.570312 85.171875 46.585938 84.828125 47.570312 L 100.9375 63.667969 C 104.789062 62.324219 109.328125 63.195312 112.441406 66.300781 C 113.136719 66.992188 113.726562 67.757812 114.214844 68.605469 C 114.707031 69.453125 115.078125 70.347656 115.332031 71.289062 C 115.585938 72.234375 115.710938 73.195312 115.710938 74.171875 C 115.710938 75.148438 115.585938 76.109375 115.332031 77.054688 C 115.078125 77.996094 114.707031 78.890625 114.21875 79.738281 C 113.726562 80.585938 113.136719 81.351562 112.445312 82.042969 C 111.753906 82.734375 110.984375 83.324219 110.136719 83.808594 C 109.289062 84.296875 108.390625 84.667969 107.445312 84.917969 C 106.503906 85.171875 105.542969 85.296875 104.566406 85.300781 C 103.585938 85.300781 102.625 85.171875 101.683594 84.917969 C 100.738281 84.667969 99.84375 84.296875 98.996094 83.808594 C 98.152344 83.320312 97.382812 82.730469 96.691406 82.039062 C 93.421875 78.765625 92.617188 73.960938 94.269531 69.933594 L 79.289062 54.964844 L 79.289062 94.46875 C 80.316406 94.996094 81.351562 95.691406 82.234375 96.574219 C 86.582031 100.921875 86.582031 107.960938 82.234375 112.316406 C 81.71875 112.832031 81.15625 113.292969 80.546875 113.699219 C 79.9375 114.105469 79.296875 114.449219 78.621094 114.730469 C 77.945312 115.007812 77.25 115.21875 76.53125 115.363281 C 75.816406 115.503906 75.089844 115.578125 74.359375 115.578125 C 73.628906 115.578125 72.902344 115.503906 72.1875 115.363281 C 71.46875 115.21875 70.773438 115.007812 70.097656 114.730469 C 69.421875 114.449219 68.78125 114.105469 68.171875 113.699219 C 67.566406 113.292969 67.003906 112.832031 66.484375 112.316406 C 62.136719 107.957031 62.136719 100.921875 66.484375 96.574219 C 67.539062 95.523438 68.753906 94.710938 70.132812 94.144531 L 70.132812 54.28125 C 68.847656 53.730469 67.5625 52.929688 66.484375 51.882812 C 65.703125 51.105469 65.054688 50.226562 64.535156 49.253906 C 64.011719 48.277344 63.648438 47.25 63.433594 46.167969 C 63.21875 45.082031 63.167969 43.992188 63.28125 42.894531 C 63.390625 41.796875 63.660156 40.738281 64.089844 39.71875 L 47.609375 23.25 L 4.070312 66.65625 C 3.636719 67.089844 3.25 67.566406 2.910156 68.074219 C 2.570312 68.585938 2.28125 69.125 2.046875 69.691406 C 1.8125 70.261719 1.636719 70.84375 1.515625 71.449219 C 1.398438 72.050781 1.335938 72.65625 1.335938 73.269531 C 1.335938 73.886719 1.398438 74.492188 1.515625 75.09375 C 1.636719 75.695312 1.8125 76.28125 2.046875 76.847656 C 2.28125 77.417969 2.570312 77.957031 2.910156 78.464844 C 3.25 78.976562 3.636719 79.449219 4.070312 79.886719 L 67.535156 143.292969 C 71.183594 146.945312 77.109375 146.945312 80.769531 143.292969 L 143.917969 80.183594 C 144.351562 79.75 144.738281 79.277344 145.082031 78.765625 C 145.421875 78.253906 145.707031 77.714844 145.941406 77.148438 C 146.175781 76.578125 146.355469 75.996094 146.472656 75.394531 C 146.59375 74.789062 146.652344 74.183594 146.652344 73.570312 C 146.652344 72.957031 146.59375 72.347656 146.472656 71.746094 C 146.355469 71.144531 146.175781 70.558594 145.941406 69.992188 C 145.707031 69.421875 145.421875 68.882812 145.082031 68.375 C 144.738281 67.863281 144.351562 67.390625 143.917969 66.953125 " fill-opacity="1" fill-rule="nonzero"/></svg>