<svg xmlns="http://www.w3.org/2000/svg" xmlns:xlink="http://www.w3.org/1999/xlink" width="322" zoomAndPan="magnify" viewBox="0 0 241.5 241.499991" height="322" preserveAspectRatio="xMidYMid meet" version="1.0"><defs><clipPath id="3d2412eb37"><path d="M 111.203125 110.210938 L 118.175781 110.210938 L 118.175781 118.160156 L 111.203125 118.160156 Z M 111.203125 110.210938 " clip-rule="nonzero"/></clipPath><clipPath id="c39fc0637d"><path d="M 111.214844 113.609375 C 113.273438 110.378906 114.054688 110.15625 114.777344 110.265625 C 115.671875 110.378906 117.007812 111.101562 117.507812 111.882812 C 118.011719 112.660156 118.066406 114.167969 117.675781 115.058594 C 117.285156 115.894531 116.058594 116.785156 115.167969 116.953125 C 114.222656 117.121094 112.773438 116.617188 112.160156 115.949219 C 111.492188 115.28125 111.101562 113.777344 111.324219 112.882812 C 111.492188 111.992188 112.496094 110.824219 113.386719 110.488281 C 114.222656 110.15625 115.726562 110.378906 116.507812 110.824219 C 117.121094 111.15625 117.566406 111.9375 117.789062 112.550781 C 118.066406 113.109375 118.179688 113.777344 118.121094 114.445312 C 118.066406 115.226562 117.84375 116.226562 117.34375 116.839844 C 116.839844 117.453125 115.949219 117.953125 115.167969 118.066406 C 114.445312 118.234375 113.386719 118.011719 112.71875 117.566406 C 112.105469 117.175781 111.214844 115.613281 111.214844 115.613281 " clip-rule="nonzero"/></clipPath></defs><g clip-path="url(#3d2412eb37)"><g clip-path="url(#c39fc0637d)"><path fill="#000000" d="M 108.984375 108.039062 L 120.351562 108.039062 L 120.351562 120.335938 L 108.984375 120.335938 Z M 108.984375 108.039062 " fill-opacity="1" fill-rule="nonzero"/></g></g><path fill="#000000" d="M 120.5 0 C 53.949219 0 0 53.949219 0 120.5 C 0 187.050781 53.949219 241 120.5 241 C 187.050781 241 241 187.050781 241 120.5 C 241 53.949219 187.050781 0 120.5 0 Z M 120.5 231.875 C 58.992188 231.875 9.128906 182.011719 9.128906 120.5 C 9.128906 58.992188 58.992188 9.128906 120.5 9.128906 C 182.011719 9.128906 231.875 58.992188 231.875 120.5 C 231.875 182.011719 182.011719 231.875 120.5 231.875 Z M 120.5 231.875 " fill-opacity="1" fill-rule="nonzero"/><path fill="#000000" d="M 106.359375 179.566406 C 103.335938 179.855469 100.921875 180.1875 98.496094 180.304688 C 84.746094 180.953125 74.570312 175.53125 68.394531 162.894531 C 66.429688 158.867188 63.914062 155.070312 61.292969 151.421875 C 59.71875 149.230469 57.511719 147.472656 55.476562 145.648438 L 55.449219 145.625 C 54.191406 144.519531 54.746094 142.445312 56.402344 142.167969 C 58.34375 141.839844 60.15625 142.191406 61.921875 142.640625 C 67.449219 144.046875 70.996094 147.964844 73.824219 152.652344 C 80.21875 163.253906 91.230469 167.675781 103.136719 164.519531 C 105.15625 163.980469 106.050781 163.113281 106.488281 160.90625 C 107.003906 158.335938 107.699219 155.800781 108.449219 153.21875 C 108.558594 152.835938 108.628906 152.449219 108.664062 152.054688 C 108.695312 151.660156 108.683594 151.265625 108.636719 150.871094 C 108.585938 150.480469 108.5 150.09375 108.375 149.71875 C 108.246094 149.34375 108.082031 148.984375 107.882812 148.644531 C 107.683594 148.300781 107.453125 147.980469 107.1875 147.6875 C 106.921875 147.390625 106.632812 147.125 106.3125 146.890625 C 105.992188 146.65625 105.65625 146.453125 105.296875 146.289062 C 104.9375 146.121094 104.5625 145.992188 104.179688 145.902344 L 104.109375 145.882812 C 91.757812 142.929688 81.085938 137.425781 74.207031 126.136719 C 70.53125 120.097656 68.710938 113.449219 68.804688 106.519531 C 68.910156 98.660156 69.605469 90.78125 70.507812 82.964844 C 71.144531 77.460938 73.695312 72.585938 77.652344 68.628906 C 79.03125 67.25 79.148438 66.09375 78.480469 64.308594 C 75.757812 56.996094 76.230469 49.667969 78.648438 42.335938 C 79.332031 40.269531 80.300781 39.972656 82.277344 40.597656 C 88.402344 42.523438 92.96875 46.507812 96.980469 51.277344 L 97.023438 51.328125 C 97.527344 51.933594 98.109375 52.449219 98.769531 52.882812 C 99.429688 53.3125 100.136719 53.636719 100.894531 53.855469 C 101.652344 54.074219 102.421875 54.179688 103.210938 54.167969 C 104 54.152344 104.769531 54.027344 105.519531 53.78125 C 118.222656 49.617188 137.492188 49.558594 149.476562 53.683594 C 150.226562 53.9375 151 54.078125 151.796875 54.097656 C 152.589844 54.121094 153.371094 54.023438 154.136719 53.808594 C 154.902344 53.59375 155.617188 53.269531 156.285156 52.835938 C 156.953125 52.402344 157.542969 51.882812 158.050781 51.273438 L 158.089844 51.226562 C 162.109375 46.457031 166.695312 42.503906 172.8125 40.570312 C 174.867188 39.921875 175.742188 40.417969 176.390625 42.414062 C 178.777344 49.746094 179.183594 57.03125 176.601562 64.417969 C 176.238281 65.460938 176.253906 67.269531 176.902344 67.925781 C 182.386719 73.488281 184.785156 80.394531 185.394531 87.878906 C 185.984375 95.109375 186.621094 102.464844 185.949219 109.640625 C 184.203125 128.3125 172.851562 139.1875 155.589844 144.59375 C 154.113281 145.054688 152.609375 145.445312 151.078125 145.804688 C 150.679688 145.902344 150.296875 146.035156 149.925781 146.210938 C 149.554688 146.382812 149.207031 146.597656 148.882812 146.84375 C 148.554688 147.089844 148.261719 147.371094 147.992188 147.679688 C 147.726562 147.992188 147.492188 148.324219 147.296875 148.683594 C 147.097656 149.042969 146.941406 149.417969 146.824219 149.808594 C 146.703125 150.203125 146.628906 150.601562 146.59375 151.007812 C 146.558594 151.417969 146.570312 151.824219 146.621094 152.230469 C 146.671875 152.636719 146.761719 153.035156 146.898438 153.417969 C 149.25 160.234375 148.890625 167.515625 148.855469 174.75 C 148.84375 176.410156 148.839844 178.074219 148.835938 179.738281 C 148.835938 180.425781 148.800781 181.109375 148.730469 181.792969 C 148.664062 182.476562 148.5625 183.15625 148.425781 183.828125 C 148.289062 184.503906 148.121094 185.167969 147.921875 185.824219 C 147.722656 186.484375 147.488281 187.128906 147.226562 187.761719 C 146.960938 188.398438 146.667969 189.015625 146.34375 189.621094 C 146.015625 190.226562 145.664062 190.816406 145.28125 191.386719 C 144.898438 191.957031 144.488281 192.507812 144.054688 193.039062 C 143.617188 193.566406 143.15625 194.074219 142.667969 194.5625 C 142.183594 195.046875 141.671875 195.507812 141.140625 195.941406 C 140.609375 196.375 140.058594 196.785156 139.488281 197.167969 C 138.917969 197.546875 138.328125 197.898438 137.722656 198.222656 C 137.117188 198.546875 136.496094 198.839844 135.859375 199.101562 C 135.226562 199.363281 134.578125 199.59375 133.921875 199.792969 C 133.265625 199.992188 132.597656 200.160156 131.925781 200.292969 C 131.25 200.425781 130.574219 200.527344 129.890625 200.59375 C 129.207031 200.660156 128.519531 200.695312 127.832031 200.695312 L 127.359375 200.695312 C 126.671875 200.695312 125.984375 200.660156 125.300781 200.59375 C 124.617188 200.527344 123.9375 200.425781 123.261719 200.292969 C 122.589844 200.15625 121.921875 199.992188 121.261719 199.792969 C 120.605469 199.589844 119.957031 199.359375 119.324219 199.097656 C 118.6875 198.832031 118.066406 198.539062 117.460938 198.214844 C 116.851562 197.890625 116.261719 197.539062 115.691406 197.15625 C 115.121094 196.773438 114.566406 196.363281 114.035156 195.929688 C 113.503906 195.492188 112.996094 195.03125 112.507812 194.542969 C 112.023438 194.058594 111.5625 193.546875 111.125 193.015625 C 110.6875 192.484375 110.277344 191.933594 109.898438 191.359375 C 109.515625 190.789062 109.160156 190.199219 108.835938 189.59375 C 108.511719 188.988281 108.21875 188.367188 107.957031 187.730469 C 107.691406 187.09375 107.460938 186.449219 107.261719 185.789062 C 107.0625 185.128906 106.894531 184.464844 106.761719 183.789062 C 106.625 183.113281 106.527344 182.433594 106.457031 181.75 C 106.390625 181.066406 106.355469 180.378906 106.355469 179.691406 Z M 106.359375 179.566406 " fill-opacity="1" fill-rule="nonzero"/></svg>