<svg xmlns="http://www.w3.org/2000/svg" xmlns:xlink="http://www.w3.org/1999/xlink" width="295" zoomAndPan="magnify" viewBox="0 0 221.25 280.5" height="374" preserveAspectRatio="xMidYMid meet" version="1.0"><defs><clipPath id="9b6c0271e9"><path d="M 92.261719 168.160156 L 100.894531 168.160156 L 100.894531 177.132812 L 92.261719 177.132812 Z M 92.261719 168.160156 " clip-rule="nonzero"/></clipPath><clipPath id="7dd25ef126"><path d="M 100.875 171.246094 C 99.753906 176.027344 99.082031 176.402344 98.484375 176.703125 C 97.8125 176.925781 97.136719 177.226562 96.390625 177.074219 C 95.269531 176.851562 93.402344 175.953125 92.804688 174.90625 C 92.128906 173.859375 92.207031 171.769531 92.503906 170.722656 C 92.804688 169.972656 93.328125 169.449219 93.851562 169.078125 C 94.371094 168.628906 95.046875 168.179688 95.792969 168.179688 C 96.914062 168.105469 99.828125 169.375 99.828125 169.375 " clip-rule="nonzero"/></clipPath><clipPath id="72e93ddc24"><path d="M 3 81 L 219.753906 81 L 219.753906 277 L 3 277 Z M 3 81 " clip-rule="nonzero"/></clipPath></defs><g clip-path="url(#9b6c0271e9)"><g clip-path="url(#7dd25ef126)"><path fill="#000000" d="M 89.515625 165.191406 L 103.867188 165.191406 L 103.867188 180.046875 L 89.515625 180.046875 Z M 89.515625 165.191406 " fill-opacity="1" fill-rule="nonzero"/></g></g><g clip-path="url(#72e93ddc24)"><path fill="#000000" d="M 51 84.777344 C 30.574219 91.574219 14.5625 108.398438 8.171875 129.839844 C 3.164062 146.664062 0 174.640625 13.640625 212.113281 C 13.773438 212.511719 27.214844 249.523438 60.160156 269.515625 C 76.371094 279.410156 96.664062 278.949219 111.820312 268.460938 L 112.414062 268.0625 C 113.007812 267.601562 113.601562 267.207031 114.128906 266.808594 C 114.984375 266.085938 115.972656 265.753906 116.960938 265.753906 C 117.949219 265.753906 118.871094 266.085938 119.730469 266.679688 C 120.519531 267.335938 121.308594 267.929688 121.96875 268.328125 L 122.101562 268.394531 C 137.257812 278.949219 157.550781 279.347656 173.761719 269.449219 C 203.28125 251.503906 217.054688 220.164062 219.753906 213.367188 C 219.160156 213.367188 218.570312 213.367188 217.976562 213.367188 L 217.84375 213.367188 C 202.160156 213.367188 187.335938 207.230469 176.265625 196.148438 C 165.128906 184.996094 158.933594 170.21875 158.933594 154.449219 C 158.871094 126.671875 178.308594 102.921875 204.597656 96.851562 C 198.273438 91.441406 190.960938 87.285156 183.050781 84.644531 C 148.0625 73.035156 123.023438 97.578125 120.320312 100.414062 L 120.191406 100.546875 C 118.476562 102.261719 115.644531 102.261719 113.929688 100.546875 L 113.796875 100.414062 C 110.964844 97.710938 85.992188 73.164062 51 84.777344 Z M 51 84.777344 " fill-opacity="1" fill-rule="evenodd"/></g><path fill="#000000" d="M 130.796875 14.710938 C 121.375 24.144531 116.828125 38.132812 117.6875 54.363281 C 133.960938 55.21875 147.929688 50.601562 157.355469 41.101562 C 166.777344 31.664062 171.390625 17.679688 170.464844 1.449219 C 154.191406 0.589844 140.222656 5.207031 130.796875 14.710938 Z M 130.796875 14.710938 " fill-opacity="1" fill-rule="evenodd"/></svg>