<svg xmlns="http://www.w3.org/2000/svg" xmlns:xlink="http://www.w3.org/1999/xlink" width="127" zoomAndPan="magnify" viewBox="0 0 95.25 95.249999" height="127" preserveAspectRatio="xMidYMid meet" version="1.2"><defs><clipPath id="a0739a9fd8"><path d="M 17.609375 33.488281 L 21.835938 33.488281 L 21.835938 37.105469 L 17.609375 37.105469 Z M 17.609375 33.488281 "/></clipPath><clipPath id="2e4a3324ef"><path d="M 21.824219 34.800781 C 19.964844 37.777344 18.179688 37.257812 17.804688 36.585938 C 17.433594 35.992188 17.730469 34.132812 18.328125 33.683594 C 18.921875 33.238281 21.304688 33.832031 21.304688 33.832031 "/></clipPath></defs><g id="dea11cd0b7"><path style=" stroke:none;fill-rule:nonzero;fill:#f36933;fill-opacity:1;" d="M 72.472656 25.011719 C 72.339844 25.113281 72.253906 25.269531 72.253906 25.445312 C 72.253906 25.5 72.261719 25.554688 72.277344 25.601562 L 72.277344 25.597656 C 72.375 25.796875 72.4375 26.03125 72.4375 26.28125 C 72.4375 26.65625 72.300781 27 72.078125 27.265625 L 72.082031 27.261719 C 72.007812 27.351562 71.96875 27.460938 71.96875 27.585938 C 71.96875 27.746094 72.046875 27.894531 72.164062 27.992188 C 72.25 28.058594 72.359375 28.101562 72.476562 28.101562 C 72.632812 28.101562 72.773438 28.03125 72.871094 27.917969 C 73.238281 27.476562 73.460938 26.90625 73.460938 26.28125 C 73.460938 25.863281 73.363281 25.480469 73.1875 25.132812 C 73.09375 25 72.945312 24.917969 72.773438 24.917969 C 72.660156 24.917969 72.558594 24.953125 72.472656 25.011719 Z M 72.472656 25.011719 "/><path style=" stroke:none;fill-rule:nonzero;fill:#f36933;fill-opacity:1;" d="M 73.191406 25.136719 L 73.183594 25.121094 L 73.1875 25.132812 Z M 73.191406 25.136719 "/><path style=" stroke:none;fill-rule:nonzero;fill:#f36933;fill-opacity:1;" d="M 52.726562 2.960938 C 28.371094 -0.164062 6.085938 17.046875 2.960938 41.410156 C -0.164062 65.765625 17.042969 88.046875 41.40625 91.175781 C 65.765625 94.296875 88.058594 77.085938 91.175781 52.726562 C 94.300781 28.371094 77.09375 6.089844 52.726562 2.960938 Z M 61.882812 30.703125 C 61.023438 30.710938 60.25 31.066406 59.6875 31.628906 L 43.183594 48.132812 L 39.664062 44.609375 C 55.929688 28.390625 58.863281 28.238281 61.882812 30.703125 Z M 43.863281 48.71875 L 60.316406 32.261719 C 60.734375 31.824219 61.324219 31.550781 61.980469 31.550781 C 63.25 31.550781 64.277344 32.582031 64.277344 33.847656 C 64.277344 34.550781 63.960938 35.1875 63.460938 35.605469 L 63.457031 35.609375 L 46.042969 50.894531 Z M 45.085938 51.289062 L 41.007812 52.171875 C 40.992188 52.175781 40.976562 52.175781 40.960938 52.175781 C 40.875 52.175781 40.796875 52.125 40.761719 52.050781 C 40.742188 52.019531 40.730469 51.980469 40.730469 51.941406 C 40.730469 51.878906 40.757812 51.824219 40.796875 51.78125 L 43.1875 49.390625 Z M 34.695312 49.585938 L 39.039062 45.246094 L 42.296875 48.5 L 34.964844 50.078125 C 34.941406 50.082031 34.917969 50.085938 34.894531 50.085938 C 34.785156 50.085938 34.691406 50.019531 34.648438 49.933594 C 34.621094 49.890625 34.609375 49.84375 34.609375 49.789062 C 34.609375 49.710938 34.640625 49.636719 34.695312 49.585938 Z M 21.183594 72.035156 C 21.039062 72.023438 20.929688 71.90625 20.929688 71.757812 C 20.929688 71.746094 20.929688 71.738281 20.929688 71.726562 C 20.9375 71.660156 20.964844 71.601562 21.011719 71.558594 L 21.015625 71.558594 L 24.523438 68.050781 L 29.050781 72.582031 Z M 30.175781 67.382812 C 29.898438 67.527344 29.714844 67.8125 29.714844 68.136719 C 29.714844 68.207031 29.722656 68.273438 29.742188 68.339844 L 29.742188 68.332031 L 30.492188 71.539062 C 30.5 71.574219 30.507812 71.609375 30.507812 71.648438 C 30.507812 71.90625 30.300781 72.113281 30.046875 72.113281 C 29.914062 72.113281 29.796875 72.0625 29.710938 71.972656 L 29.699219 71.972656 L 25.148438 67.417969 L 39.09375 53.492188 L 45.835938 52.035156 L 49.078125 55.273438 C 44.425781 59.355469 38.066406 63.429688 30.175781 67.382812 Z M 49.734375 54.679688 L 49.730469 54.679688 L 46.621094 51.570312 L 64.035156 36.28125 C 64.195312 36.136719 64.339844 35.988281 64.46875 35.820312 L 64.476562 35.8125 C 63.929688 40.796875 56.957031 47.839844 49.734375 54.679688 Z M 68.050781 32.710938 C 66.191406 32.710938 64.507812 31.957031 63.289062 30.738281 L 63.292969 30.738281 L 63.28125 30.730469 C 62.066406 29.511719 61.3125 27.824219 61.3125 25.96875 C 61.3125 22.242188 64.339844 19.214844 68.066406 19.214844 C 69.71875 19.214844 71.230469 19.808594 72.402344 20.796875 L 72.390625 20.789062 L 66.425781 26.765625 C 66.34375 26.847656 66.296875 26.953125 66.296875 27.078125 C 66.296875 27.199219 66.34375 27.308594 66.425781 27.386719 L 71.046875 32.007812 C 70.171875 32.449219 69.140625 32.710938 68.050781 32.710938 Z M 72.847656 30.738281 C 72.546875 31.035156 72.222656 31.296875 71.863281 31.53125 L 71.84375 31.546875 L 71.839844 31.546875 L 67.367188 27.074219 L 73.046875 21.390625 C 75.496094 24.058594 75.410156 28.179688 72.847656 30.738281 Z M 72.847656 30.738281 "/><g clip-rule="nonzero" clip-path="url(#a0739a9fd8)"><g clip-rule="nonzero" clip-path="url(#2e4a3324ef)"><path style=" stroke:none;fill-rule:nonzero;fill:#f36832;fill-opacity:1;" d="M 14.828125 30.707031 L 24.882812 30.707031 L 24.882812 40.457031 L 14.828125 40.457031 Z M 14.828125 30.707031 "/></g></g></g></svg>