<svg xmlns="http://www.w3.org/2000/svg" xmlns:xlink="http://www.w3.org/1999/xlink" width="277" zoomAndPan="magnify" viewBox="0 0 207.75 207.75" height="277" preserveAspectRatio="xMidYMid meet" version="1.0"><defs><clipPath id="f3b07910f7"><path d="M 0 0 L 207.5 0 L 207.5 207.5 L 0 207.5 Z M 0 0 " clip-rule="nonzero"/></clipPath><clipPath id="405fe56ba7"><path d="M 14.746094 114.167969 L 24.117188 114.167969 L 24.117188 124.851562 L 14.746094 124.851562 Z M 14.746094 114.167969 " clip-rule="nonzero"/></clipPath><clipPath id="85553ef469"><path d="M 14.757812 118.730469 C 17.527344 114.386719 18.578125 114.085938 19.550781 114.238281 C 20.75 114.386719 22.546875 115.359375 23.222656 116.410156 C 23.894531 117.457031 23.972656 119.480469 23.445312 120.679688 C 22.921875 121.804688 21.273438 123.003906 20.074219 123.226562 C 18.800781 123.453125 16.855469 122.777344 16.03125 121.878906 C 15.132812 120.980469 14.609375 118.957031 14.90625 117.757812 C 15.132812 116.558594 16.480469 114.988281 17.679688 114.539062 C 18.800781 114.085938 20.824219 114.386719 21.875 114.988281 C 22.699219 115.4375 23.296875 116.484375 23.597656 117.308594 C 23.972656 118.058594 24.121094 118.957031 24.046875 119.855469 C 23.972656 120.90625 23.671875 122.253906 22.996094 123.078125 C 22.324219 123.902344 21.125 124.574219 20.074219 124.726562 C 19.101562 124.949219 17.679688 124.648438 16.78125 124.050781 C 15.957031 123.527344 14.757812 121.429688 14.757812 121.429688 " clip-rule="nonzero"/></clipPath></defs><g clip-path="url(#f3b07910f7)"><path fill="#000000" d="M 64.03125 0 L 143.464844 0 C 144.511719 0 145.558594 0.0273438 146.605469 0.078125 C 147.652344 0.128906 148.695312 0.207031 149.738281 0.308594 C 150.78125 0.410156 151.820312 0.539062 152.859375 0.691406 C 153.894531 0.847656 154.925781 1.027344 155.957031 1.230469 C 156.984375 1.433594 158.003906 1.664062 159.023438 1.917969 C 160.039062 2.171875 161.046875 2.453125 162.050781 2.757812 C 163.054688 3.0625 164.046875 3.390625 165.035156 3.742188 C 166.023438 4.097656 167 4.472656 167.96875 4.875 C 168.933594 5.273438 169.894531 5.699219 170.839844 6.148438 C 171.789062 6.597656 172.722656 7.066406 173.648438 7.5625 C 174.570312 8.054688 175.484375 8.570312 176.382812 9.109375 C 177.28125 9.648438 178.167969 10.210938 179.039062 10.792969 C 179.910156 11.375 180.765625 11.976562 181.605469 12.601562 C 182.449219 13.226562 183.273438 13.871094 184.085938 14.535156 C 184.894531 15.199219 185.6875 15.882812 186.464844 16.585938 C 187.242188 17.292969 188 18.015625 188.742188 18.753906 C 189.480469 19.496094 190.203125 20.253906 190.90625 21.03125 C 191.613281 21.808594 192.296875 22.601562 192.960938 23.410156 C 193.625 24.222656 194.269531 25.046875 194.894531 25.886719 C 195.519531 26.730469 196.121094 27.585938 196.703125 28.457031 C 197.285156 29.328125 197.847656 30.214844 198.386719 31.113281 C 198.925781 32.011719 199.441406 32.921875 199.933594 33.847656 C 200.429688 34.773438 200.898438 35.707031 201.347656 36.65625 C 201.796875 37.601562 202.21875 38.558594 202.621094 39.527344 C 203.023438 40.496094 203.398438 41.472656 203.753906 42.460938 C 204.105469 43.445312 204.433594 44.441406 204.738281 45.445312 C 205.042969 46.449219 205.320312 47.457031 205.578125 48.472656 C 205.832031 49.492188 206.0625 50.511719 206.265625 51.539062 C 206.46875 52.566406 206.648438 53.601562 206.800781 54.636719 C 206.957031 55.671875 207.085938 56.714844 207.1875 57.757812 C 207.289062 58.800781 207.367188 59.84375 207.417969 60.890625 C 207.46875 61.9375 207.496094 62.984375 207.496094 64.03125 L 207.496094 143.464844 C 207.496094 144.511719 207.46875 145.558594 207.417969 146.605469 C 207.367188 147.652344 207.289062 148.699219 207.1875 149.742188 C 207.085938 150.785156 206.957031 151.824219 206.800781 152.859375 C 206.648438 153.894531 206.46875 154.929688 206.265625 155.957031 C 206.0625 156.984375 205.832031 158.007812 205.578125 159.023438 C 205.320312 160.039062 205.042969 161.050781 204.738281 162.050781 C 204.433594 163.054688 204.105469 164.050781 203.753906 165.035156 C 203.398438 166.023438 203.023438 167 202.621094 167.96875 C 202.21875 168.9375 201.796875 169.894531 201.347656 170.839844 C 200.898438 171.789062 200.429688 172.726562 199.933594 173.648438 C 199.441406 174.574219 198.925781 175.484375 198.386719 176.382812 C 197.847656 177.28125 197.285156 178.167969 196.703125 179.039062 C 196.121094 179.910156 195.519531 180.765625 194.894531 181.609375 C 194.269531 182.449219 193.625 183.277344 192.960938 184.085938 C 192.296875 184.894531 191.613281 185.6875 190.90625 186.464844 C 190.203125 187.242188 189.480469 188 188.742188 188.742188 C 188 189.484375 187.242188 190.207031 186.464844 190.910156 C 185.6875 191.613281 184.894531 192.296875 184.085938 192.960938 C 183.273438 193.625 182.449219 194.269531 181.605469 194.894531 C 180.765625 195.519531 179.910156 196.121094 179.039062 196.707031 C 178.167969 197.289062 177.28125 197.847656 176.382812 198.386719 C 175.484375 198.925781 174.570312 199.441406 173.648438 199.9375 C 172.722656 200.429688 171.789062 200.902344 170.839844 201.347656 C 169.894531 201.796875 168.933594 202.222656 167.96875 202.621094 C 167 203.023438 166.023438 203.402344 165.035156 203.753906 C 164.046875 204.105469 163.054688 204.433594 162.050781 204.738281 C 161.046875 205.042969 160.039062 205.324219 159.023438 205.578125 C 158.003906 205.832031 156.984375 206.0625 155.957031 206.265625 C 154.925781 206.472656 153.894531 206.648438 152.859375 206.804688 C 151.820312 206.957031 150.78125 207.085938 149.738281 207.1875 C 148.695312 207.292969 147.652344 207.367188 146.605469 207.417969 C 145.558594 207.472656 144.511719 207.496094 143.464844 207.496094 L 64.03125 207.496094 C 62.984375 207.496094 61.9375 207.472656 60.890625 207.417969 C 59.84375 207.367188 58.796875 207.292969 57.753906 207.1875 C 56.710938 207.085938 55.671875 206.957031 54.636719 206.804688 C 53.597656 206.648438 52.566406 206.472656 51.539062 206.265625 C 50.511719 206.0625 49.488281 205.832031 48.472656 205.578125 C 47.457031 205.324219 46.445312 205.042969 45.445312 204.738281 C 44.441406 204.433594 43.445312 204.105469 42.460938 203.753906 C 41.472656 203.402344 40.496094 203.023438 39.527344 202.621094 C 38.558594 202.222656 37.601562 201.796875 36.652344 201.347656 C 35.707031 200.902344 34.769531 200.429688 33.847656 199.9375 C 32.921875 199.441406 32.011719 198.925781 31.113281 198.386719 C 30.214844 197.847656 29.328125 197.289062 28.457031 196.707031 C 27.585938 196.121094 26.730469 195.519531 25.886719 194.894531 C 25.046875 194.269531 24.21875 193.625 23.410156 192.960938 C 22.597656 192.296875 21.804688 191.613281 21.03125 190.910156 C 20.253906 190.207031 19.496094 189.484375 18.753906 188.742188 C 18.011719 188 17.289062 187.242188 16.585938 186.464844 C 15.882812 185.6875 15.199219 184.894531 14.535156 184.085938 C 13.867188 183.277344 13.222656 182.449219 12.601562 181.609375 C 11.976562 180.765625 11.371094 179.910156 10.789062 179.039062 C 10.207031 178.167969 9.648438 177.28125 9.109375 176.382812 C 8.570312 175.484375 8.054688 174.574219 7.558594 173.648438 C 7.066406 172.726562 6.59375 171.789062 6.148438 170.839844 C 5.699219 169.894531 5.273438 168.9375 4.871094 167.96875 C 4.472656 167 4.09375 166.023438 3.742188 165.035156 C 3.390625 164.050781 3.058594 163.054688 2.757812 162.050781 C 2.453125 161.050781 2.171875 160.039062 1.917969 159.023438 C 1.664062 158.007812 1.433594 156.984375 1.230469 155.957031 C 1.023438 154.929688 0.84375 153.894531 0.691406 152.859375 C 0.539062 151.824219 0.410156 150.785156 0.308594 149.742188 C 0.203125 148.699219 0.128906 147.652344 0.0742188 146.605469 C 0.0234375 145.558594 0 144.511719 0 143.464844 L 0 64.03125 C 0 62.984375 0.0234375 61.9375 0.0742188 60.890625 C 0.128906 59.84375 0.203125 58.800781 0.308594 57.757812 C 0.410156 56.714844 0.539062 55.671875 0.691406 54.636719 C 0.84375 53.601562 1.023438 52.566406 1.230469 51.539062 C 1.433594 50.511719 1.664062 49.492188 1.917969 48.472656 C 2.171875 47.457031 2.453125 46.449219 2.757812 45.445312 C 3.058594 44.441406 3.390625 43.445312 3.742188 42.460938 C 4.09375 41.472656 4.472656 40.496094 4.871094 39.527344 C 5.273438 38.558594 5.699219 37.601562 6.148438 36.65625 C 6.59375 35.707031 7.066406 34.773438 7.558594 33.847656 C 8.054688 32.921875 8.570312 32.011719 9.109375 31.113281 C 9.648438 30.214844 10.207031 29.328125 10.789062 28.457031 C 11.371094 27.585938 11.976562 26.730469 12.601562 25.886719 C 13.222656 25.046875 13.867188 24.222656 14.535156 23.410156 C 15.199219 22.601562 15.882812 21.808594 16.585938 21.03125 C 17.289062 20.253906 18.011719 19.496094 18.753906 18.753906 C 19.496094 18.015625 20.253906 17.292969 21.03125 16.585938 C 21.804688 15.882812 22.597656 15.199219 23.410156 14.535156 C 24.21875 13.871094 25.046875 13.226562 25.886719 12.601562 C 26.730469 11.976562 27.585938 11.375 28.457031 10.792969 C 29.328125 10.210938 30.214844 9.648438 31.113281 9.109375 C 32.011719 8.570312 32.921875 8.054688 33.847656 7.5625 C 34.769531 7.066406 35.707031 6.597656 36.652344 6.148438 C 37.601562 5.699219 38.558594 5.273438 39.527344 4.875 C 40.496094 4.472656 41.472656 4.097656 42.460938 3.742188 C 43.445312 3.390625 44.441406 3.0625 45.445312 2.757812 C 46.445312 2.453125 47.457031 2.171875 48.472656 1.917969 C 49.488281 1.664062 50.511719 1.433594 51.539062 1.230469 C 52.566406 1.027344 53.597656 0.847656 54.636719 0.691406 C 55.671875 0.539062 56.710938 0.410156 57.753906 0.308594 C 58.796875 0.207031 59.84375 0.128906 60.890625 0.078125 C 61.9375 0.0273438 62.984375 0 64.03125 0 Z M 64.03125 0 " fill-opacity="1" fill-rule="evenodd"/></g><path fill="#fefefe" d="M 100.351562 111.96875 L 95.125 104.488281 L 53.542969 45.007812 L 71.449219 45.007812 L 105.003906 93.015625 L 110.230469 100.488281 L 153.851562 162.886719 L 135.949219 162.886719 Z M 116.316406 93.40625 L 165.5 36.234375 L 153.839844 36.234375 L 111.136719 85.875 L 77.027344 36.234375 L 37.6875 36.234375 L 89.265625 111.300781 L 37.6875 171.257812 L 49.34375 171.257812 L 94.4375 118.835938 L 130.464844 171.257812 L 169.804688 171.257812 L 116.308594 93.410156 L 116.316406 93.410156 Z M 116.316406 93.40625 " fill-opacity="1" fill-rule="nonzero"/><g clip-path="url(#405fe56ba7)"><g clip-path="url(#85553ef469)"><path fill="#000000" d="M 11.761719 111.242188 L 27.042969 111.242188 L 27.042969 127.777344 L 11.761719 127.777344 Z M 11.761719 111.242188 " fill-opacity="1" fill-rule="nonzero"/></g></g></svg>