<svg xmlns="http://www.w3.org/2000/svg" xmlns:xlink="http://www.w3.org/1999/xlink" width="200" zoomAndPan="magnify" viewBox="0 0 150 149.999998" height="200" preserveAspectRatio="xMidYMid meet" version="1.2"><defs><clipPath id="cce64aa426"><path d="M 125.523438 61.527344 L 127 61.527344 L 127 62.75 L 125.523438 62.75 Z M 125.523438 61.527344 "/></clipPath><clipPath id="92f82b13cd"><path d="M 126.976562 61.976562 C 126.300781 62.953125 125.699219 62.800781 125.625 62.578125 C 125.476562 62.351562 125.550781 61.75 125.773438 61.601562 C 126 61.453125 126.75 61.675781 126.75 61.675781 "/></clipPath></defs><g id="9d52a20157"><path style=" stroke:none;fill-rule:nonzero;fill:#007acc;fill-opacity:1;" d="M 112.5 0 L 112.5 128.90625 L 0 112.125 L 112.5 150 L 150 134.390625 L 150 15.585938 Z M 73.125 21.9375 L 38.671875 56.015625 L 17.929688 40.382812 L 9.375 43.242188 L 30.46875 64.101562 L 9.375 84.960938 L 17.929688 87.820312 L 38.671875 72.1875 L 73.125 106.242188 L 93.75 97.5 L 93.75 30.703125 Z M 73.125 46.242188 L 73.125 82.03125 L 49.453125 64.101562 Z M 73.125 46.242188 "/><g clip-rule="nonzero" clip-path="url(#cce64aa426)"><g clip-rule="nonzero" clip-path="url(#92f82b13cd)"><path style=" stroke:none;fill-rule:nonzero;fill:#007acd;fill-opacity:1;" d="M 122.625 58.601562 L 130.042969 58.601562 L 130.042969 65.875 L 122.625 65.875 Z M 122.625 58.601562 "/></g></g></g></svg>